# xmcd CD database file
#
# Track frame offsets:
#	150
#	12205
#	27297
#	42780
#	59600
#	73382
#	89287
#	114645
#	130177
#	157332
#
# Disc length: 2405 seconds
#
# Revision: 1
# Processed by: cddbd v1.5.1PL0 Copyright (c) Steve Scherf et al.
# Submitted via: CDex 1.51
#
DISCID=8c09630a
DTITLE=Lou Donaldson - Quartet/Quintet/Sextet
DYEAR=1954
DGENRE=Jazz
TTITLE0=If I Love Again
TTITLE1=Down Home
TTITLE2=The Best Things In Life Are Free
TTITLE3=Lou's Blues
TTITLE4=Cheek To Cheek
TTITLE5=Sweet Juice
TTITLE6=The Stroller
TTITLE7=Roccus
TTITLE8=Caracas
TTITLE9=Moe's Bluff
EXTD=YEAR: 1954
EXTT0=
EXTT1=
EXTT2=
EXTT3=
EXTT4=
EXTT5=
EXTT6=
EXTT7=
EXTT8=
EXTT9=
PLAYORDER=
